<svg xmlns="http://www.w3.org/2000/svg" width="19.027" height="14.27" viewBox="0 0 19.027 14.27">
  <path id="Path_456" data-name="Path 456" d="M19.021,48.756A.77.77,0,0,0,19,48.64a.8.8,0,0,0-.029-.115c0-.012,0-.024-.009-.036s-.027-.042-.038-.064a.778.778,0,0,0-.062-.1.735.735,0,0,0-.077-.084.816.816,0,0,0-.084-.077.778.778,0,0,0-.1-.062.654.654,0,0,0-.064-.038c-.011,0-.024,0-.036-.009a.777.777,0,0,0-.113-.029A.8.8,0,0,0,18.27,48c-.012,0-.024,0-.036,0H.793c-.013,0-.025.005-.037.006a.77.77,0,0,0-.116.017.8.8,0,0,0-.115.029c-.012,0-.024,0-.036.009s-.042.027-.064.038a.778.778,0,0,0-.1.062.735.735,0,0,0-.084.077.817.817,0,0,0-.077.084.778.778,0,0,0-.062.1.655.655,0,0,0-.038.064c0,.011,0,.024-.009.036a.8.8,0,0,0-.029.115.824.824,0,0,0-.017.116c0,.013-.005.024-.005.037V61.477a.823.823,0,0,0,.015.155c0,.023.013.045.02.068a.813.813,0,0,0,.025.08.82.82,0,0,0,.04.076c.011.02.02.041.033.061a.793.793,0,0,0,.22.22c.019.013.041.022.061.033a.849.849,0,0,0,.075.04.82.82,0,0,0,.08.025c.023.007.044.015.068.02a.841.841,0,0,0,.155.015H18.234a.822.822,0,0,0,.155-.015c.023,0,.045-.013.068-.02a.821.821,0,0,0,.08-.025.8.8,0,0,0,.075-.04c.021-.011.042-.02.061-.033a.8.8,0,0,0,.22-.22c.013-.019.022-.04.033-.061a.73.73,0,0,0,.04-.076.814.814,0,0,0,.025-.08c.007-.023.015-.044.02-.068a.885.885,0,0,0,.015-.155V48.793C19.027,48.78,19.022,48.769,19.021,48.756Zm-2.7.83L10.309,55.6a1.128,1.128,0,0,1-1.592,0l-6.01-6.011ZM1.586,50.707l4.428,4.428L1.586,59.564Zm1.121,9.978,4.428-4.428.461.461a2.709,2.709,0,0,0,3.834,0l.461-.461,4.428,4.428Zm14.735-1.121-4.428-4.428,4.428-4.428Z" transform="translate(0 -48)" fill="#fff"/>
</svg>
